<svg width="60" height="60" viewBox="1 0 60 60" xmlns="http://www.w3.org/2000/svg"><g fill="none"><path fill="#FFF" d="M0 0h61v60H0z"/><path d="M41.32 46.908c.02.05.03.105.028.16a.312.312 0 0 1-.09.245.357.357 0 0 1-.26.08h-.585v-.632H41a.72.72 0 0 1 .132.012c.04.007.08.022.114.045a.234.234 0 0 1 .08.096l-.006-.005v-.001zm4.487 3.002h-29.95l3.14-4.84h23.662l3.147 4.84h.001zM19.71 43.98h22.24l-2.126-3.277h-17.99L19.71 43.98zm19.514-4.21l-1.52-2.34h-13.75l-1.52 2.34h16.79z" fill="#2D7050"/><path d="M38.94 26.824c0 4.48-3.63 8.11-8.11 8.11-4.48 0-8.11-3.63-8.11-8.11 0-4.48 3.63-8.11 8.11-8.11 4.48 0 8.11 3.63 8.11 8.11" fill="#FF6B00"/><path d="M41.132 10.206c.192.065.405.01.54-.14l.076-.086h.617v2.006h-.74a1.37 1.37 0 0 0-.218-.403c-.49-.597-1.252-.837-2.065-.837-.762 0-1.43.237-1.43.79.015.21.152.394.35.468.266.1.545.165.828.19.65.09 1.28.16 1.918.265.607.098.986.215 1.298.625.352.467.45 1.078.26 1.632-.138.473-.45.875-.874 1.127a3.393 3.393 0 0 1-1.113.384 5.596 5.596 0 0 1-1.884-.062l-1.04-.227a.434.434 0 0 0-.352.097.434.434 0 0 0-.105.187h-.706V14.11h.665c.453.88 1.45 1.27 2.448 1.298.564.017 1.146-.018 1.448-.474a.632.632 0 0 0-.043-.642c-.26-.32-.688-.303-1.085-.343-.73-.074-1.228-.15-1.228-.15-.582-.1-1.182-.2-1.66-.552a1.628 1.628 0 0 1-.58-1.41 2.05 2.05 0 0 1 .757-1.38c.25-.195.532-.35.832-.458.494-.183 1.116-.193 1.665-.155a5.25 5.25 0 0 1 1.417.358l.004.004zm-6.502.969a.386.386 0 0 0-.361-.517h-.38v-.676h2.676v.677h-.097a.857.857 0 0 0-.693.313c-.202.264-.273.564-.405.837l-1.74 4.41h-.942l-1.504-4.213-1.69 4.213h-.845l-1.805-5.105c-.1-.254-.23-.456-.514-.456h-.21V9.98h3.19v.677c-.2 0-.423-.028-.564.11-.23.244-.1.564 0 .837l.78 2.187L31 9.982h1.227c0 .03 1.087 3.098 1.355 3.866l1.048-2.673zm-11.172-.1a.238.238 0 0 0 .08-.266.237.237 0 0 0-.23-.158h-.184v-.67h2.7v.677h-.197c-.373 0-.713.408-.986.643l-1.092.986c.297.42 2.325 2.733 2.325 2.733.25.26.407.515 1.11.515h.125v.677h-3.802v-.677c.273 0 .608.025.676-.262a.465.465 0 0 0-.14-.407l-1.343-1.63-.977.885v.975a.433.433 0 0 0 .438.435h.337v.678h-3.3v-.678c.434 0 .668-.19.8-.514.054-.17.08-.35.078-.53v-3.003c0-.28 0-.835-.51-.835H19v-.67h3.3v.677h-.272c-.467 0-.505.563-.505.755v1.444l1.935-1.785v.005z" fill="#1D1D1B"/></g></svg>