<svg id="Capa_1" data-name="Capa 1" xmlns="http://www.w3.org/2000/svg" viewBox="0 0 163.13 286.14"><defs><style>.cls-1{fill:#891017;}.cls-2,.cls-3{fill:#fff;}.cls-3{fill-rule:evenodd;}</style></defs><title>Logo Kioshi Stone-Scroll</title><polygon class="cls-1" points="0 0 163.13 0 163.13 256.09 82.1 286.14 0 256.09 0 0"/><path class="cls-2" d="M26.29,193.68V172h5.43v9.64L39.07,172h6.07l-7.67,10,9.59,11.63H40l-8.29-10.16v10.16Z"/><path class="cls-2" d="M48.34,193.68V172h5.57v21.64Z"/><path class="cls-2" d="M57.2,182.88a11.65,11.65,0,0,1,.85-4.46,11,11,0,0,1,2.55-3.66,10.59,10.59,0,0,1,3.72-2.3,14.64,14.64,0,0,1,9.31,0,11,11,0,0,1,3.73,2.3,10.8,10.8,0,0,1,2.53,3.66,12,12,0,0,1,0,8.91A10.28,10.28,0,0,1,77.36,191a11,11,0,0,1-3.75,2.34,14.25,14.25,0,0,1-9.27,0A11,11,0,0,1,60.6,191a10.13,10.13,0,0,1-2.52-3.62A11.47,11.47,0,0,1,57.2,182.88Zm5.58,0a6.64,6.64,0,0,0,1.74,4.75,6.23,6.23,0,0,0,8.9,0,6.68,6.68,0,0,0,1.74-4.75,6.76,6.76,0,0,0-1.74-4.77,6.23,6.23,0,0,0-8.9,0A6.72,6.72,0,0,0,62.78,182.88Z"/><path class="cls-2" d="M83.57,192v-4.82a22.71,22.71,0,0,0,4.12,2.13,9.88,9.88,0,0,0,3.25.6,4.84,4.84,0,0,0,2.42-.49,1.72,1.72,0,0,0,.31-2.69,7.94,7.94,0,0,0-2.38-1.12c-3.09-1.09-5.2-2.19-6.37-3.32a5.79,5.79,0,0,1-1.74-4.32,5.42,5.42,0,0,1,2.26-4.5,9.47,9.47,0,0,1,5.92-1.74,16.24,16.24,0,0,1,3.69.44,19.19,19.19,0,0,1,3.66,1.33v4.44a24.37,24.37,0,0,0-3.91-1.63,11,11,0,0,0-3.16-.53,5,5,0,0,0-2.36.45,1.41,1.41,0,0,0-.81,1.28,1.66,1.66,0,0,0,.73,1.28,7.75,7.75,0,0,0,2.2,1.14c.2.09.52.19.93.36a27.37,27.37,0,0,1,4.45,2,5.8,5.8,0,0,1,2.12,2.23,6.69,6.69,0,0,1,.73,3.18,5.6,5.6,0,0,1-2.27,4.72,10.2,10.2,0,0,1-6.29,1.72,14.43,14.43,0,0,1-3.89-.53A14.59,14.59,0,0,1,83.57,192Z"/><path class="cls-2" d="M102.83,193.68V172h5.41v8.68h9.64V172h5.42v21.64h-5.42v-8.77h-9.64v8.77Z"/><path class="cls-2" d="M127.69,193.68V172h5.59v21.64Z"/><path class="cls-3" d="M80.59,154l16.76-6.26a17.91,17.91,0,0,0-.85-8.52L80.72,153.25l13.2-18.81a18,18,0,0,0-5.06-4.53l-8.55,22.93L83,127.7a17.62,17.62,0,0,0-6.87.1l3.76,25.13-9.51-22.8a17.78,17.78,0,0,0-4.82,4.45l13.95,18.69-16.76-13a18.12,18.12,0,0,0-.69,4.93,20.16,20.16,0,0,0,.12,2.06L79.59,154H64.34a17.76,17.76,0,0,0,30.86,0Z"/><rect class="cls-2" x="24.02" y="153.31" width="111.5" height="1.28"/><rect class="cls-2" x="24.02" y="209.49" width="15.16" height="1.28"/><rect class="cls-2" x="120.11" y="209.49" width="15.16" height="1.28"/><path class="cls-2" d="M52.26,214.86v-2.51a11.51,11.51,0,0,0,2.14,1.1,4.85,4.85,0,0,0,1.7.32,2.56,2.56,0,0,0,1.26-.25.82.82,0,0,0,.43-.76.81.81,0,0,0-.27-.64,3.7,3.7,0,0,0-1.24-.59A9.3,9.3,0,0,1,53,209.8a3,3,0,0,1-.91-2.25,2.81,2.81,0,0,1,1.19-2.34,4.88,4.88,0,0,1,3.07-.91,8.48,8.48,0,0,1,1.92.24,9.28,9.28,0,0,1,1.91.68v2.31a15,15,0,0,0-2-.85,6.11,6.11,0,0,0-1.64-.26,2.54,2.54,0,0,0-1.23.23.7.7,0,0,0-.42.67.9.9,0,0,0,.37.66,4.17,4.17,0,0,0,1.15.6l.49.17a17.13,17.13,0,0,1,2.31,1A2.9,2.9,0,0,1,60.25,211a3.43,3.43,0,0,1,.37,1.65,3,3,0,0,1-1.17,2.46,5.31,5.31,0,0,1-3.28.89,7.37,7.37,0,0,1-3.91-1.09Z"/><path class="cls-2" d="M65,215.75v-9.17H61.3v-2.1H71.74v2.1H68v9.17Z"/><path class="cls-2" d="M72.4,210.13a6.12,6.12,0,0,1,.44-2.33,5.71,5.71,0,0,1,1.32-1.9,5.43,5.43,0,0,1,2-1.2,6.79,6.79,0,0,1,2.4-.4,7.08,7.08,0,0,1,2.45.4,5.78,5.78,0,0,1,1.94,1.2,5.71,5.71,0,0,1,1.32,1.9,6.36,6.36,0,0,1,0,4.65,5.58,5.58,0,0,1-1.32,1.89,5.76,5.76,0,0,1-2,1.2,6.7,6.7,0,0,1-2.43.41,6.87,6.87,0,0,1-2.4-.4,5.85,5.85,0,0,1-2-1.21,5.55,5.55,0,0,1-1.31-1.89A5.92,5.92,0,0,1,72.4,210.13Zm2.9,0a3.5,3.5,0,0,0,.91,2.48,3,3,0,0,0,2.3,1,3.05,3.05,0,0,0,2.33-1,3.85,3.85,0,0,0,0-5,3,3,0,0,0-2.33-1,3,3,0,0,0-2.3,1A3.49,3.49,0,0,0,75.3,210.13Z"/><path class="cls-2" d="M89.09,208.67v7.08H86.3V204.48h2.48l6,6.72v-6.72h2.78v11.27h-2.2Z"/><path class="cls-2" d="M99.82,215.75V204.48h7.54v2.08h-4.72v2.29h4.51V211h-4.51v2.69h4.86v2.11Z"/></svg>