<?xml version="1.0" encoding="utf-8"?>
<!-- Generator: Adobe Illustrator 27.5.0, SVG Export Plug-In . SVG Version: 6.00 Build 0)  -->
<svg version="1.1" id="Layer_1" xmlns="http://www.w3.org/2000/svg" xmlns:xlink="http://www.w3.org/1999/xlink" x="0px" y="0px"
	 viewBox="0 0 223.3 79.2" style="enable-background:new 0 0 223.3 79.2;" xml:space="preserve">
<style type="text/css">
	.st0{fill:#0072BC;}
	.st1{fill:#00953B;}
	.st2{fill:#E1251B;}
	.st3{fill:#FFFFFF;}
	.st4{fill:#243746;}
</style>
<g>
	<path class="st0" d="M113.2,11.8c0,0.7-0.1,1.4-0.2,2.1c-0.1,0.8-0.2,1.5-0.2,2.2c-0.1,0.7-0.2,1.4-0.3,2h-7.6v29h-9.8v-29h-8V10
		h26.1C113.2,10.5,113.2,11.2,113.2,11.8"/>
	<path class="st0" d="M138.6,32.8c0,2.4-0.4,4.6-1.1,6.5s-1.7,3.4-2.9,4.7c-1.2,1.2-2.7,2.2-4.4,2.8s-3.5,1-5.4,1s-3.9-0.3-5.6-0.9
		c-1.7-0.6-3.1-1.5-4.3-2.7c-1.2-1.2-2.1-2.8-2.8-4.6s-1-4.1-1-6.7c0-2.4,0.3-4.5,1-6.3s1.6-3.4,2.8-4.7c1.2-1.3,2.7-2.3,4.3-3
		s3.5-1,5.6-1s3.8,0.3,5.4,0.8c1.7,0.5,3.1,1.4,4.3,2.6c1.2,1.2,2.2,2.7,2.9,4.6S138.6,30.1,138.6,32.8 M129,32.8
		c0-1.5-0.1-2.7-0.2-3.7c-0.2-1-0.4-1.7-0.8-2.3c-0.3-0.6-0.8-1-1.3-1.2c-0.5-0.2-1.1-0.3-1.8-0.3s-1.2,0.1-1.7,0.3
		s-0.9,0.6-1.3,1.2c-0.3,0.6-0.6,1.4-0.8,2.3c-0.2,1-0.2,2.2-0.2,3.7c0,1.5,0.1,2.8,0.2,3.7c0.2,1,0.4,1.8,0.7,2.3
		c0.3,0.6,0.7,1,1.2,1.2c0.5,0.2,1.1,0.3,1.8,0.3s1.3-0.1,1.8-0.3c0.5-0.2,0.9-0.6,1.3-1.2c0.3-0.6,0.6-1.3,0.8-2.3
		S129,34.3,129,32.8"/>
	<path class="st0" d="M169.4,31.7c0,2.5-0.3,4.8-0.9,6.7c-0.6,2-1.5,3.7-2.7,5c-1.2,1.4-2.6,2.4-4.3,3.2c-1.7,0.7-3.6,1.1-5.8,1.1
		c-2.3,0-4.6-0.3-6.7-1c-2.2-0.6-4.1-1.6-5.8-3V10.2c1.3-0.2,2.8-0.3,4.4-0.5s3.2-0.2,4.7-0.2v11.4h0.4c1-1.1,2-1.8,3-2.3
		c1.1-0.5,2.2-0.7,3.4-0.7c1.4,0,2.8,0.2,4,0.7c1.2,0.5,2.3,1.3,3.2,2.4s1.6,2.5,2.1,4.3S169.4,29.1,169.4,31.7 M159.8,32.3
		c0-1.4-0.1-2.5-0.2-3.4c-0.2-0.9-0.4-1.6-0.7-2.1c-0.3-0.5-0.7-0.9-1.2-1.1c-0.5-0.2-1-0.3-1.7-0.3c-1.4,0-2.6,0.4-3.6,1.2v12.8
		c0.4,0.3,0.9,0.4,1.4,0.5c0.5,0.1,1,0.1,1.5,0.1c1.7,0,2.8-0.6,3.5-1.7C159.5,37.2,159.8,35.2,159.8,32.3"/>
	<rect x="174.4" y="18.4" class="st0" width="9.1" height="28.8"/>
	<polygon class="st0" points="174.4,16 174.4,9.5 183.5,8.9 183.5,16 	"/>
	<path class="st0" d="M205,47.2V28.4c0-0.9-0.2-1.5-0.6-1.9c-0.4-0.4-1.1-0.6-2.3-0.6c-0.6,0-1.3,0.1-2,0.2c-0.7,0.2-1.3,0.4-2,0.8
		v20.3h-9.1V18.8c1.3-0.2,2.8-0.3,4.4-0.4s3.2-0.1,4.7-0.1v2.9h0.4c1.4-1.3,2.6-2.1,3.8-2.6s2.4-0.7,3.8-0.7c1.1,0,2.2,0.2,3.1,0.5
		c1,0.3,1.8,0.9,2.5,1.6c0.7,0.7,1.2,1.6,1.7,2.8c0.4,1.1,0.6,2.5,0.6,4.1v20.4L205,47.2L205,47.2z"/>
	<path class="st1" d="M73.4,27l3.1-0.2l-0.8,3c-2.3,8.3-6.2,14.8-11.5,19.3c-11.9,10.1-32.4,10.8-44.5,0.8
		C14.1,45.4,10.1,38.8,8,29.6l-0.7-3l3.1,0.3c8.6,0.9,15.6,3.7,21,8.2c4.9,4.1,8.4,9.8,10.4,16.8c1.8-7,4.9-12.7,9.7-17
		C56.8,30.4,64,27.6,73.4,27 M70.4,31.6c-6.8,0.9-12.1,3.2-16.1,6.7c-3.9,3.4-6.5,8.1-8.1,13.9c6-0.9,11-3,15-6.4
		C65.3,42.3,68.3,37.7,70.4,31.6 M13.1,31.8c2,6.6,5.1,11.4,9.2,14.8c4,3.3,9.1,5.2,15,5.8c-1.9-5.8-4.8-10.4-8.8-13.8
		C24.5,35.1,19.3,32.9,13.1,31.8"/>
	<path class="st1" d="M41.7,13.9c-2.4,0-4.5,0.9-6.1,2.5S33.1,20,33,22.4c0,2.4,0.9,4.5,2.5,6.1s3.7,2.6,6.1,2.6s4.5-0.9,6.1-2.5
		s2.6-3.7,2.6-6.1c0-2.4-0.9-4.6-2.5-6.1S44.1,13.9,41.7,13.9 M41.8,9.5c3.6,0,6.8,1.5,9.1,3.9c2.3,2.4,3.8,5.6,3.7,9.2
		c0,3.6-1.5,6.8-3.9,9.1c-2.4,2.3-5.6,3.8-9.2,3.7c-3.6,0-6.8-1.5-9.1-3.9s-3.8-5.6-3.7-9.2s1.5-6.8,3.9-9.1
		C35,10.9,38.2,9.5,41.8,9.5"/>
	<path class="st1" d="M75.8,58c-0.2,0-0.5,0.1-0.7,0.1c-0.2,0-0.5,0-0.8,0l-0.5-1.7h-1.9l-0.5,1.7c-0.2,0-0.4,0-0.7,0
		c-0.2,0-0.5,0-0.7-0.1c0.3-1.1,0.6-2.2,1-3.3c0.3-1.1,0.7-2.2,1.1-3.4h1.7c0.4,1.2,0.7,2.3,1.1,3.4C75.2,55.8,75.5,56.9,75.8,58
		 M73,53.3c0-0.1,0-0.2-0.1-0.3s0-0.2,0-0.3h-0.1c0,0.2,0,0.4-0.1,0.6l-0.5,1.8h1.3L73,53.3L73,53.3z"/>
	<path class="st1" d="M79.5,52.7c0,0.2,0,0.5,0,0.7c0,0.2-0.1,0.5-0.1,0.7c-0.1,0-0.1,0-0.2,0c-0.1,0-0.2,0-0.3,0
		c-0.2,0-0.4,0-0.5,0.1c-0.2,0-0.3,0.1-0.5,0.2V58h-1.4v-5.2c0.2,0,0.4,0,0.7-0.1c0.2,0,0.5,0,0.7,0v0.7H78c0.1-0.2,0.2-0.3,0.3-0.4
		c0.1-0.1,0.2-0.2,0.3-0.2c0.1,0,0.2-0.1,0.3-0.1c0.1,0,0.2,0,0.2,0c0.1,0,0.1,0,0.2,0C79.4,52.7,79.5,52.7,79.5,52.7"/>
	<g>
		<g>
			<path class="st1" d="M133.6,64.5c0.9,0,1.6,0,2.1-0.2c0.8-0.3,1.1-0.8,1.1-1.1c0.4-1.1-1-1.1-1.7-1.1h-0.8L133.6,64.5L133.6,64.5
				z M133.6,64.6l-0.3,0.8c-0.4,1.3-0.5,1.6-0.8,2.9l-0.1,0.1c-1.5,0-1.8,0-3.1,0l-0.1-0.1c0.4-0.9,0.5-1.4,0.8-2.4
				c0.9-3,1.2-4.1,1.5-5.1l0.1-0.1h3.4c2.1,0,3.1,0,3.9,0.3c1.3,0.5,1.2,1.5,1.1,1.9c-0.4,1.4-2.2,1.8-3.1,2
				c0.3,0.5,0.5,0.8,0.9,1.3c0.9,1.2,1.1,1.4,1.6,1.9l-0.1,0.1c-0.6,0-1.1,0-1.7,0c-0.8,0-1.7-0.2-2.2-1L133.6,64.6L133.6,64.6z"/>
			<path class="st1" d="M167.4,66.5c-0.2,0.5-0.3,1-0.4,1.5l-0.1,0.1c-1.2,0.2-2.4,0.5-4.1,0.5c-1.1,0-1.7-0.1-2.2-0.2
				c-0.6-0.1-1.7-0.4-2.5-1.2c-0.5-0.6-0.7-1.5-0.4-2.5c0.2-0.7,0.8-1.6,1.6-2.3c1.8-1.5,4-1.8,5.9-1.8c1.7,0,2.8,0.3,3.4,0.5
				l0.1,0.1c-0.4,0.6-0.4,0.8-0.7,1.5l-0.2,0c-0.7-0.3-1.3-0.7-2.6-0.7c-2.1,0-3.8,0.9-4.3,2.6c-0.2,0.8-0.3,2.4,2.3,2.4
				c0.5,0,0.8-0.1,1.3-0.1c0.4-1,0.2-0.8,0.4-1.8L165,65l2.9,0l0.1,0.1c-0.2,0.5-0.2,0.6-0.4,1.2L167.4,66.5L167.4,66.5z"/>
			<path class="st1" d="M146.7,65l1.4-1.8l1-1.3l0.1,1.4l0.1,1.7L146.7,65L146.7,65L146.7,65z M152.7,66.2l0.1-0.1l1-1.1l-0.1,0H152
				c-0.2-1.8-0.3-2.6-0.4-4.2l-0.1-0.1c-1.6,0-1.9,0-3.7,0l-0.1,0.1c-1.5,1.8-2.4,2.9-6.2,7.5l0,0.1h2.6l0.1-0.1l2.2-2.9
				c0,0,0.1,0.9,1.3,0.9h1.6l0.1,2.1l0.1,0.1c1.2,0,1.6,0,2.9,0l0.1-0.1c-0.1-0.8-0.2-1.5-0.2-2.1L152.7,66.2L152.7,66.2z"/>
			<path class="st1" d="M178.6,62.2c-0.2,0.7-0.4,1-0.6,1.6c-0.5,1.5-0.9,3-1.3,4.5l-0.1,0.1c-1.4,0-1.7,0-2.9,0l-0.1-0.1
				c1-2.7,1.2-3.4,2.1-6.2l-3.6,0l-0.1-0.1c0,0,0.9-1.4,2.4-1.4h8.4l0.1,0c0,0-0.7,1.4-2.8,1.4C178.5,62.2,178.6,62.2,178.6,62.2"/>
			<path class="st2" d="M142.1,65.6c-0.2-0.7-1.2-1.3-1.8-1.1C140.5,65.2,141.5,65.8,142.1,65.6"/>
			<path class="st2" d="M156.4,65.6c-0.2-0.7-1.2-1.3-1.8-1.1C154.8,65.2,155.8,65.8,156.4,65.6"/>
			<path class="st2" d="M171.4,65.6c-0.2-0.7-1.2-1.3-1.8-1.1C169.8,65.2,170.8,65.8,171.4,65.6"/>
			<path class="st2" d="M120.9,58.5c0.9-0.2,3.1,0.4,4.8,0c1.7-0.3,3.3-0.5,3.3-0.5s-1.6,5.1-1.9,6.1c-0.3,1-0.8,4.3-1.5,6
				c0,0-2.9,0.9-5.4,0.6c-2.5-0.2-4-0.3-5.2-0.2c0,0,1.5-5.1,2.2-6.7s1.5-5,1.5-5.3v-0.1L120.9,58.5L120.9,58.5z"/>
			<path class="st1" d="M114,56.4c1.4-0.3,7.1-1.3,9.7-0.2c0,0-3.6,9.9-3.8,12.2c0,0-7,1-9,0.4c0,0,0.9-4.5,2.1-7.2
				C113.8,59.9,114,56.4,114,56.4"/>
			<path class="st3" d="M117.2,56.5c0,0.5-0.1,1-0.1,1.5c0.2,0.2,0.1,0.4,0.2,0.7c-0.3,0-0.5,0-0.8,0c-0.3,0-0.7-0.1-1,0
				c-0.2,0.1-0.4,0.3-0.5,0.5c-0.4,0.8-0.4,1.6-0.3,2.4c-0.2,0.2-0.2,0.6-0.3,0.9c-0.2,0.4,0,0.8-0.1,1.1c0,0.1,0,0.2-0.1,0.3
				c0,0,0.1,0,0.1,0c0.1-0.3,0.3-0.6,0.2-0.9c0.1,0,0.1-0.1,0.1-0.1c0-0.2,0-0.4,0.1-0.6c0.1-0.2,0.2-0.4,0.3-0.6
				c0.2-0.3,0.4-0.7,0.5-1.1c0.1-0.2,0.2-0.5,0.4-0.8c0,0.4,0.1,0.8,0.1,1.2c0.1,0.7,0,1.3-0.2,2c0,0.2-0.1,0.3-0.1,0.5
				c0,0.1-0.1,0.2-0.1,0.3c-0.1,0.7-0.1,1.4-0.1,2.1c0,0.6,0,1.2,0,1.8c0,0,0,0.1-0.1,0.2c0,0,0.1,0,0.2,0c0.1-0.1,0.2-0.2,0.3-0.2
				c0.1,0,0.1-0.1,0.1-0.2c0-0.2,0-0.4,0-0.7c0-0.2,0-0.3,0.1-0.5c0.1-0.4,0.3-0.7,0.4-1.1c0.1-0.6,0.2-1.2,0.3-1.8
				c0-0.2,0.1-0.5,0.2-0.8c0-0.2,0.1-0.3,0.1-0.5c0,0.1,0,0.2,0,0.2c-0.1,0.3-0.1,0.6,0,0.9c0.1,0.2,0,0.4,0.1,0.5
				c0.1,0.2,0.1,0.4,0.2,0.6c0,0.4,0,0.7,0,1.1c-0.1,0.6-0.1,1.2,0,1.9c0,0.1,0.2,0.2,0.4,0.3c0-0.2-0.1-0.5,0-0.7
				c0.1-0.2,0.1-0.4,0.1-0.6c0.1-0.1,0.1-0.3,0.2-0.4c0.1-0.3,0.1-0.7,0.1-1c0-0.8,0-1.6,0-2.4c0,0,0-0.1,0-0.1c0-0.3,0-0.6,0-1
				c0-0.3,0.1-0.7,0.1-1c0-0.1,0.1-0.1,0.1-0.2c0.1-0.5,0.2-0.9,0.1-1.4c-0.2-0.1-0.4-0.3-0.6-0.4c-0.1,0-0.1-0.2,0-0.2
				c0.1-0.4,0.1-0.8,0.3-1.2c0.1-0.2,0-0.3,0-0.5c0,0-0.1-0.1-0.2-0.1c-0.2-0.1-0.4-0.1-0.5,0c-0.1,0-0.2,0-0.2,0.1
				C117.3,56.6,117.2,56.6,117.2,56.5"/>
			<path class="st3" d="M118.5,59.2c0.8-0.1,1.5,0,2.2,0.3c0.3,0.1,0.6,0.1,1,0.1c0.7,0,1.4,0.1,2-0.1c0,0.2-0.1,0.2-0.2,0.3v0.1
				c0.3,0.1,0.7,0.1,0.9,0.5c-0.6,0.1-1.3,0-2,0.1c-0.1,0-0.2,0.1-0.3,0.1c-0.6,0-1.2,0.2-1.8,0.1c-0.5-0.1-0.9-0.4-1.5-0.4
				C118.7,59.8,118.4,59.6,118.5,59.2"/>
			<path class="st3" d="M125.9,63.8c-0.4-1.5-2.3-2.6-3.6-2.1C122.7,63.2,124.6,64.3,125.9,63.8"/>
			<path class="st3" d="M125.1,66.5c-0.4-1.5-2.3-2.6-3.6-2.1C121.9,65.9,123.8,67,125.1,66.5"/>
			<path class="st3" d="M124.3,69.2c-0.4-1.5-2.3-2.6-3.6-2.1C121.1,68.6,123,69.7,124.3,69.2"/>
		</g>
		<g>
			<path class="st4" d="M188.3,60.8h1.8c1.2,0,1.8,0.6,1.8,1.8v0.3c0,0.8-0.2,1.3-0.8,1.5v0c0.6,0.2,0.9,0.8,0.9,1.6v0.7
				c0,1.2-0.6,1.8-1.8,1.8h-1.9C188.3,68.4,188.3,60.8,188.3,60.8z M190,63.9c0.4,0,0.7-0.2,0.7-0.8v-0.4c0-0.5-0.2-0.8-0.6-0.8
				h-0.6v2C189.5,63.9,190,63.9,190,63.9z M190.2,67.3c0.4,0,0.6-0.2,0.6-0.8v-0.7c0-0.7-0.2-0.9-0.8-0.9h-0.5v2.4H190.2L190.2,67.3
				z"/>
			<path class="st4" d="M193.8,60.8h1.8c1.2,0,1.8,0.6,1.8,1.8V63c0,0.8-0.2,1.3-0.8,1.5v0c0.6,0.2,0.8,0.8,0.8,1.6v1.3
				c0,0.4,0,0.7,0.1,0.9h-1.2c-0.1-0.2-0.1-0.3-0.1-0.9v-1.4c0-0.7-0.2-0.9-0.8-0.9H195v3.3h-1.2L193.8,60.8L193.8,60.8z
				 M195.5,64.1c0.4,0,0.7-0.2,0.7-0.8v-0.6c0-0.5-0.2-0.8-0.6-0.8H195v2.2H195.5z"/>
			<path class="st4" d="M201.8,66.9h-1.4l-0.2,1.5H199l1.2-7.7h1.6l1.2,7.7H202L201.8,66.9L201.8,66.9z M201.6,65.9l-0.6-3.9
				l-0.5,3.9H201.6z"/>
			<path class="st4" d="M204.8,60.8h1.5l1.2,4.6v-4.6h1.1v7.7h-1.2l-1.5-5.6v5.6h-1.1C204.8,68.4,204.8,60.8,204.8,60.8z"/>
			<path class="st4" d="M210.6,60.8h1.8c1.2,0,1.8,0.7,1.8,1.9v3.9c0,1.2-0.6,1.9-1.8,1.9h-1.8V60.8L210.6,60.8z M212.4,67.3
				c0.4,0,0.6-0.2,0.6-0.8v-4c0-0.5-0.2-0.8-0.6-0.8h-0.6v5.5L212.4,67.3L212.4,67.3z"/>
		</g>
		<g>
			<path class="st4" d="M97.9,66.9h-1.4l-0.2,1.5h-1.1l1.2-7.7h1.6l1.2,7.7h-1.2L97.9,66.9L97.9,66.9z M97.8,65.9L97.2,62l-0.5,3.9
				C96.7,65.9,97.8,65.9,97.8,65.9z"/>
			<path class="st4" d="M101,60.8h1.5l1.2,4.6v-4.6h1.1v7.7h-1.2l-1.5-5.6v5.6H101C101,68.4,101,60.8,101,60.8z"/>
		</g>
	</g>
</g>
</svg>
